<svg width="24" height="25" viewBox="0 0 24 25" fill="none" xmlns="http://www.w3.org/2000/svg">
<g clip-path="url(#clip0_907_4184)">
<path d="M24 10.6685V24.6685H0V10.6685H24ZM24 8.66846V5.66846C24 4.87281 23.6839 4.10975 23.1213 3.54714C22.5587 2.98453 21.7956 2.66846 21 2.66846H18V0.668457H16V2.66846H8V0.668457H6V2.66846H3C2.20435 2.66846 1.44129 2.98453 0.87868 3.54714C0.31607 4.10975 0 4.87281 0 5.66846L0 8.66846H24ZM18 14.6685H16V16.6685H18V14.6685ZM13 14.6685H11V16.6685H13V14.6685ZM8 14.6685H6V16.6685H8V14.6685ZM18 18.6685H16V20.6685H18V18.6685ZM13 18.6685H11V20.6685H13V18.6685ZM8 18.6685H6V20.6685H8V18.6685Z" fill="#9F3142"/>
</g>
<defs>
<clipPath id="clip0_907_4184">
<rect width="24" height="24" fill="white" transform="translate(0 0.668457)"/>
</clipPath>
</defs>
</svg>
