<svg width="216" height="56" viewBox="0 0 216 56" fill="none" xmlns="http://www.w3.org/2000/svg">
<path d="M75.2687 25.1489V40.076C75.2687 40.1032 75.2579 40.1294 75.2386 40.1487C75.2193 40.168 75.1932 40.1788 75.1659 40.1788L72.2959 40.1772C72.2412 40.1772 72.2139 40.1493 72.2139 40.0936L72.2155 25.1505C72.2155 25.098 72.1893 25.0718 72.1368 25.0718L70.0445 25.067C70.0232 25.067 70.0028 25.0585 69.9877 25.0434C69.9726 25.0284 69.9642 25.0079 69.9642 24.9866L69.9609 22.5794C69.9609 22.5237 69.9888 22.4958 70.0445 22.4958H72.1255C72.1759 22.4958 72.201 22.4712 72.201 22.4219C72.1866 19.6354 72.7378 16.1708 76.2329 15.8559C77.4231 15.7487 78.4982 15.8837 79.4581 16.2608C79.4845 16.271 79.5062 16.2906 79.5189 16.3158C79.5317 16.341 79.5346 16.3701 79.5272 16.3974L78.8506 18.84C78.8239 18.9364 78.7687 18.9573 78.6851 18.9027C77.917 18.3981 76.8275 18.2486 76.0722 18.8432C75.1273 19.5872 75.1884 21.2344 75.3009 22.4123C75.3062 22.468 75.3368 22.4958 75.3925 22.4958L78.3814 22.4974C78.4489 22.4974 78.4826 22.5306 78.4826 22.5971V24.9625C78.4826 24.9915 78.4713 25.0193 78.4511 25.0398C78.4309 25.0603 78.4035 25.0718 78.375 25.0718L75.3491 25.0686C75.3278 25.0686 75.3073 25.077 75.2923 25.0921C75.2772 25.1072 75.2687 25.1276 75.2687 25.1489Z" fill="#20483F"/>
<path d="M88.613 18.1878L81.5086 21.1735C81.4888 21.1815 81.4666 21.1815 81.4467 21.1734C81.4269 21.1653 81.4111 21.1498 81.4026 21.1301L80.5894 19.311C80.5806 19.2916 80.5796 19.2695 80.5868 19.2494C80.594 19.2292 80.6088 19.2127 80.628 19.2034L87.5074 15.8368C87.5172 15.8319 87.5278 15.829 87.5388 15.8283C87.5497 15.8276 87.5606 15.8291 87.571 15.8327C87.5813 15.8363 87.5908 15.8419 87.5989 15.8492C87.6071 15.8566 87.6136 15.8654 87.6183 15.8753L88.6548 18.0769C88.6596 18.0869 88.6623 18.0977 88.6628 18.1088C88.6632 18.1198 88.6615 18.1309 88.6576 18.1412C88.6537 18.1516 88.6477 18.1611 88.64 18.1691C88.6324 18.1771 88.6232 18.1834 88.613 18.1878Z" fill="#20483F"/>
<path d="M47.7324 20.7717C45.4907 22.4864 45.359 26.5536 45.3686 29.0588C45.3798 31.8099 45.7334 37.2093 49.5162 37.6078C51.7129 37.8392 53.2315 36.3271 53.7971 34.4052C53.8064 34.3741 53.8227 34.3456 53.8447 34.3218C53.8667 34.298 53.8939 34.2796 53.9242 34.268C53.9544 34.2563 53.987 34.2518 54.0193 34.2547C54.0515 34.2576 54.0828 34.2678 54.1105 34.2846L56.3184 35.6136C56.3559 35.6361 56.3855 35.6696 56.4031 35.7096C56.4206 35.7497 56.4253 35.7942 56.4164 35.837C56.3248 36.3062 56.124 36.6163 55.817 37.1579C54.6 39.2994 52.7553 40.412 50.2827 40.4956C44.5619 40.69 42.8537 35.7357 42.423 31.0531C42.1841 28.4509 42.37 25.8658 42.9807 23.2979C43.9882 19.0555 47.0093 16.4731 51.5666 17.3296C54.0671 17.7989 55.8315 19.8461 56.5916 22.2469C56.6077 22.3005 56.5916 22.3407 56.5434 22.3674L54.0639 23.7542C54.0539 23.7598 54.0429 23.763 54.0316 23.7636C54.0202 23.7643 54.0089 23.7624 53.9984 23.7581C53.9879 23.7538 53.9785 23.7471 53.9709 23.7387C53.9633 23.7302 53.9577 23.7202 53.9546 23.7092C53.6664 22.6915 53.2764 21.8929 52.7847 21.3133C51.5168 19.822 49.2671 19.597 47.7324 20.7717Z" fill="#20483F"/>
<path d="M65.7819 37.9417C64.4642 40.5418 61.0815 41.2167 58.6791 39.7704C56.7765 38.6263 56.2414 35.8382 56.7942 33.8648C57.7792 30.3472 62.7785 29.6385 65.7562 29.7221C65.8012 29.7243 65.8264 29.7028 65.8317 29.6578C65.9871 28.3358 65.8526 27.1976 65.4284 26.243C65.0909 25.4867 64.4476 25.0346 63.4984 24.8868C61.6649 24.6023 60.1977 25.6742 59.4312 27.2522C59.4221 27.2709 59.4087 27.287 59.392 27.2994C59.3753 27.3117 59.3559 27.3199 59.3353 27.3232C59.3147 27.3265 59.2936 27.3248 59.2736 27.3183C59.2537 27.3119 59.2355 27.3008 59.2207 27.286L57.4771 25.491C57.4364 25.4492 57.4332 25.4047 57.4675 25.3576C60.7216 20.7617 68.0011 20.8404 68.7901 27.5141C68.8212 27.782 68.8378 28.6438 68.8399 30.0997C68.8421 32.4802 68.8458 34.8612 68.8512 37.2427C68.8533 38.224 69.0081 39.1662 69.3156 40.0693C69.3199 40.0821 69.3212 40.0957 69.3192 40.1091C69.3172 40.1225 69.3121 40.1352 69.3042 40.1461C69.2964 40.1571 69.286 40.1661 69.2741 40.1723C69.2621 40.1785 69.2488 40.1818 69.2353 40.1818H66.579C66.5177 40.1819 66.4584 40.1609 66.4109 40.1222C66.3635 40.0835 66.3309 40.0297 66.3186 39.9697L65.9137 37.961C65.8869 37.8281 65.843 37.8217 65.7819 37.9417ZM59.7092 34.1412C59.3492 34.9212 59.33 35.7048 59.6514 36.4922C60.3456 38.1924 62.3607 38.3836 63.7668 37.5609C65.7305 36.4135 65.8864 34.1477 65.8912 32.1165C65.8912 32.0672 65.8665 32.0393 65.8173 32.0329C64.1857 31.8497 62.7292 32.0297 61.4479 32.5729C60.6059 32.9317 60.0263 33.4545 59.7092 34.1412Z" fill="#20483F"/>
<path d="M81.0541 32.4172C81.1521 34.405 81.819 37.4823 84.2696 37.7651C86.4679 38.019 87.8402 37.0002 88.5457 34.9738C88.5515 34.9566 88.5613 34.9409 88.5743 34.9281C88.5873 34.9154 88.6032 34.9058 88.6206 34.9004C88.638 34.8949 88.6564 34.8936 88.6744 34.8966C88.6924 34.8996 88.7094 34.9068 88.7241 34.9176L90.7472 36.4169C90.7813 36.442 90.8054 36.4784 90.8151 36.5196C90.8248 36.5609 90.8196 36.6042 90.8003 36.6419C89.3122 39.558 87.002 40.8226 83.8695 40.4359C80.5688 40.0277 78.8461 37.5498 78.3351 34.4371C77.6602 30.3378 78.1101 23.2366 83.5159 22.2885C87.408 21.6072 89.9695 23.873 90.6187 27.5995C90.8844 29.1283 91.0033 30.6688 90.9754 32.2211C90.9744 32.2736 90.9476 32.2999 90.8951 32.2999L81.1682 32.2983C81.0878 32.2983 81.0498 32.3379 81.0541 32.4172ZM85.0923 24.7359C82.052 24.5624 81.2389 27.5031 81.0701 29.9392C81.0648 30.0132 81.0991 30.0501 81.173 30.0501H87.9576C88.0015 30.0501 88.024 30.0282 88.0251 29.9842C88.0422 28.659 87.8199 27.4618 87.3582 26.3927C86.9693 25.4928 86.1176 24.7938 85.0923 24.7359Z" fill="#20483F"/>
<path d="M195.225 16.1895H192.371C192.334 16.1895 192.305 16.219 192.305 16.2553V39.8102C192.305 39.8465 192.334 39.876 192.371 39.876H195.225C195.261 39.876 195.29 39.8465 195.29 39.8102V16.2553C195.29 16.219 195.261 16.1895 195.225 16.1895Z" fill="#20483F"/>
<path d="M188.358 19.9584C189.378 19.9584 190.205 19.1318 190.205 18.112C190.205 17.0923 189.378 16.2656 188.358 16.2656C187.338 16.2656 186.512 17.0923 186.512 18.112C186.512 19.1318 187.338 19.9584 188.358 19.9584Z" fill="#20483F"/>
<path d="M199.205 19.9609C200.227 19.9609 201.055 19.1328 201.055 18.1113C201.055 17.0898 200.227 16.2617 199.205 16.2617C198.184 16.2617 197.355 17.0898 197.355 18.1113C197.355 19.1328 198.184 19.9609 199.205 19.9609Z" fill="#20483F"/>
<path d="M113.251 30.1516C112.963 34.2814 111.554 38.5688 107.132 39.6133C106.49 39.7644 105.425 39.849 103.935 39.8672C102.588 39.8833 101.24 39.8833 99.8923 39.8672C99.8725 39.8668 99.8537 39.8587 99.8399 39.8445C99.8261 39.8304 99.8184 39.8115 99.8184 39.7917V17.2959C99.8184 17.2455 99.8441 17.2198 99.8955 17.2187C103.161 17.1438 105.229 17.1459 106.1 17.2252C112.558 17.8181 113.603 25.0864 113.251 30.1516ZM108.184 21.2827C106.77 19.7706 104.699 19.9795 102.841 20.0132C102.781 20.0143 102.751 20.0448 102.751 20.1048V36.9024C102.751 36.9209 102.758 36.9386 102.771 36.9518C102.784 36.965 102.802 36.9727 102.82 36.9731C105.089 37.0133 107.066 37.2752 108.631 35.2504C109.121 34.6173 109.469 33.9231 109.677 33.1678C110.453 30.3385 110.515 27.4438 109.863 24.4838C109.593 23.2593 109.034 22.1923 108.184 21.2827Z" fill="#20483F"/>
<path d="M153.508 20.1507V27.7372C153.508 27.7593 153.517 27.7806 153.533 27.7963C153.548 27.8119 153.569 27.8207 153.592 27.8207H160.657C160.68 27.8207 160.701 27.8295 160.717 27.8452C160.732 27.8609 160.741 27.8821 160.741 27.9043V30.6297C160.741 30.6519 160.732 30.6731 160.717 30.6888C160.701 30.7045 160.68 30.7133 160.657 30.7133H153.592C153.569 30.7133 153.548 30.7221 153.533 30.7377C153.517 30.7534 153.508 30.7747 153.508 30.7968V36.8968C153.508 36.919 153.517 36.9403 153.533 36.9559C153.548 36.9716 153.569 36.9804 153.592 36.9804H161.925C161.947 36.9804 161.969 36.9892 161.984 37.0049C162 37.0206 162.009 37.0418 162.009 37.064L162.023 39.7894C162.023 39.8115 162.015 39.8328 161.999 39.8485C161.983 39.8641 161.962 39.8729 161.94 39.8729H150.546C150.524 39.8729 150.503 39.8641 150.487 39.8485C150.472 39.8328 150.463 39.8115 150.463 39.7894L150.464 17.2727C150.464 17.2617 150.467 17.2508 150.471 17.2407C150.475 17.2306 150.481 17.2213 150.489 17.2136C150.497 17.2058 150.506 17.1997 150.516 17.1955C150.526 17.1913 150.537 17.1891 150.548 17.1891L161.93 17.1875C161.952 17.1875 161.974 17.1963 161.989 17.212C162.005 17.2276 162.014 17.2489 162.014 17.2711L162.017 19.9836C162.017 20.0058 162.008 20.027 161.992 20.0427C161.977 20.0584 161.956 20.0672 161.933 20.0672H153.592C153.569 20.0672 153.548 20.076 153.533 20.0916C153.517 20.1073 153.508 20.1286 153.508 20.1507Z" fill="#20483F"/>
<path d="M126.369 36.5512C125.112 39.5273 122.107 40.6683 119.118 39.9885C113.984 38.8219 113.703 31.8429 114.415 27.8222C114.959 24.7369 116.706 22.1127 120.071 21.8781C121.726 21.7624 123.478 22.0741 124.715 23.1894C127.264 25.4873 127.407 29.0708 127.309 32.2398C127.264 33.7375 126.95 35.1746 126.369 36.5512ZM121 24.5778C117.672 24.3432 117.116 28.555 117.163 30.8771C117.201 32.8585 117.341 35.6835 119.125 36.9594C119.702 37.3719 120.357 37.5256 121.09 37.4206C124.164 36.9771 124.277 33.0577 124.267 30.7196C124.256 28.6032 123.929 24.7867 121 24.5778Z" fill="#20483F"/>
<path d="M131.92 24.4655C133.142 22.4118 134.973 21.5719 137.412 21.9458C140.821 22.468 141.624 26.0387 141.622 28.9071C141.621 32.5356 141.619 36.1641 141.614 39.7926C141.613 39.8483 141.585 39.8762 141.531 39.8762L138.651 39.873C138.6 39.873 138.574 39.8473 138.574 39.7959C138.577 36.057 138.575 32.3208 138.568 28.5873C138.565 27.9402 138.447 27.2541 138.212 26.5288C137.811 25.2914 137.139 24.7033 135.812 24.586C132.524 24.2919 132.01 27.5476 131.994 30.1573C131.975 33.3605 131.975 36.5664 131.992 39.775C131.992 39.8014 131.981 39.8267 131.963 39.8454C131.944 39.8641 131.919 39.8746 131.892 39.8746H129.125C129.073 39.8746 129.046 39.8484 129.046 39.7959C129.047 34.7714 129.045 29.7497 129.04 24.7306C129.04 24.0685 128.914 23.2517 128.662 22.28C128.648 22.2254 128.67 22.198 128.727 22.198H131.07C131.27 22.198 131.39 22.2966 131.429 22.4937L131.817 24.4478C131.836 24.5431 131.87 24.549 131.92 24.4655Z" fill="#20483F"/>
<path d="M167.189 24.4018C167.19 24.4126 167.194 24.423 167.201 24.4313C167.208 24.4397 167.218 24.4456 167.228 24.4483C167.239 24.451 167.25 24.4503 167.26 24.4462C167.27 24.4422 167.278 24.4351 167.284 24.4259C168.271 22.872 169.163 22.0556 171.101 21.9785C173.309 21.8907 174.808 22.8018 175.599 24.712C175.621 24.7677 175.648 24.7698 175.681 24.7184C176.484 23.4183 177.156 22.3963 178.756 22.0074C179.583 21.806 180.395 21.7841 181.192 21.9415C184.149 22.5249 184.68 25.2712 184.681 27.8118C184.684 31.7917 184.685 35.786 184.683 39.7949C184.683 39.8158 184.675 39.8358 184.66 39.8505C184.645 39.8653 184.625 39.8736 184.604 39.8736H181.752C181.692 39.8736 181.662 39.8441 181.662 39.7852C181.664 36.2746 181.663 32.766 181.659 29.2596C181.657 27.9339 181.822 25.689 180.452 24.9048C179.529 24.3777 178.159 24.5786 177.365 25.2808C176.061 26.433 176.055 28.4915 176.066 30.3122C176.082 33.4704 176.09 36.6292 176.09 39.7884C176.09 39.8452 176.061 39.8736 176.004 39.8736H173.196C173.139 39.8736 173.111 39.8452 173.111 39.7884C173.115 36.1267 173.113 32.4671 173.105 28.8097C173.1 27.1288 172.931 24.5207 170.582 24.6091C168.573 24.6846 167.503 26.5117 167.495 28.3453C167.485 30.4193 167.484 34.2342 167.49 39.79C167.491 39.8457 167.463 39.8736 167.406 39.8736L164.554 39.8752C164.493 39.8752 164.462 39.8441 164.462 39.782C164.454 35.0308 164.452 30.2806 164.458 25.5315C164.46 24.2534 164.357 23.1736 164.151 22.2919C164.136 22.2287 164.161 22.1971 164.226 22.1971H166.685C166.744 22.1971 166.782 22.2249 166.801 22.2806C167.02 22.9716 167.15 23.6787 167.189 24.4018Z" fill="#20483F"/>
<path d="M202.379 29.8711C202.552 26.0241 204.036 22.1882 208.418 21.8556C212.626 21.5342 214.881 24.5408 215.387 28.3397C215.903 32.2173 215.607 38.5583 210.87 39.8937C208.593 40.5349 205.999 40.0769 204.383 38.2482C202.522 36.1415 202.25 32.7138 202.379 29.8711ZM212.207 34.1681C212.679 31.7513 213.125 24.7915 209.123 24.5714C204.849 24.3368 205.173 31.3913 205.649 33.9239C205.885 35.1837 206.53 36.6027 207.714 37.1683C209.078 37.8191 210.751 37.2728 211.505 35.9631C211.859 35.3471 212.093 34.7488 212.207 34.1681Z" fill="#20483F"/>
<path d="M189.761 22.1973H186.949C186.914 22.1973 186.885 22.226 186.885 22.2615V39.8095C186.885 39.845 186.914 39.8738 186.949 39.8738H189.761C189.797 39.8738 189.826 39.845 189.826 39.8095V22.2615C189.826 22.226 189.797 22.1973 189.761 22.1973Z" fill="#20483F"/>
<path d="M200.654 22.1973H197.774C197.732 22.1973 197.697 22.2318 197.697 22.2744V39.7967C197.697 39.8393 197.732 39.8738 197.774 39.8738H200.654C200.697 39.8738 200.731 39.8393 200.731 39.7967V22.2744C200.731 22.2318 200.697 22.1973 200.654 22.1973Z" fill="#20483F"/>
<path d="M30.4259 41.636C30.3866 40.5763 30.3466 39.5021 29.7941 38.2554C29.5757 37.7648 29.2372 37.0181 28.4932 36.3129C27.7474 35.615 26.8195 35.1422 25.8165 34.949V33.7539C24.8702 33.8995 24.0964 33.9926 23.605 34.045C21.3615 34.3012 15.8887 34.7954 8.9004 33.9148C8.39083 33.8507 7.97881 33.7925 7.74805 33.759L7.76042 48.668C7.77034 49.0056 7.85936 49.3361 8.0203 49.6331C8.11653 49.8105 8.23927 49.9722 8.38428 50.1127C8.62802 50.3407 8.92674 50.5017 9.25127 50.5799C9.25782 50.7852 9.26364 50.9904 9.27019 51.1964L24.8484 51.2524C24.8418 50.9722 24.836 50.692 24.8294 50.4118C25.0627 50.3155 25.2674 50.1612 25.4242 49.9635C25.5639 49.774 25.6631 49.5577 25.7153 49.3281C25.7592 49.1696 25.7862 49.0069 25.7962 48.8427C26.242 48.7178 26.6722 48.5422 27.0781 48.3194C27.7319 47.9495 28.3168 47.4693 28.807 46.9002C29.4446 46.1675 29.9198 45.308 30.201 44.3783C30.4914 43.4016 30.4638 42.6491 30.4259 41.636ZM11.5239 40.6142C11.6965 40.4839 11.8937 40.4315 12.1791 40.4162C12.6835 40.3986 13.1859 40.4871 13.6539 40.676C14.32 40.9264 14.7153 41.1425 15.2554 41.4038C15.6492 41.5974 16.2178 41.866 16.9297 42.1593C16.7102 42.3785 16.5034 42.6101 16.3102 42.8529C16.1933 42.9984 16.086 43.144 15.9885 43.2896C14.8127 42.9448 13.6682 42.5014 12.5671 41.9642C12.0641 41.7182 11.5931 41.4642 11.1541 41.208C11.2066 40.9739 11.337 40.7646 11.5239 40.6142ZM13.2434 45.4176C12.5677 45.0228 12.0016 44.4651 11.5967 43.7954C11.3265 43.349 11.1529 42.8509 11.0872 42.3332C11.0492 42.0224 11.0524 41.708 11.0966 41.398C11.6063 41.7351 12.1357 42.0413 12.6821 42.315C13.359 42.6491 14.0566 42.9396 14.7706 43.1847C15.1797 43.3303 15.5269 43.4417 15.7803 43.5195C15.6347 43.6775 15.2445 44.1302 15.1462 44.7131C15.1135 44.8917 15.111 45.0745 15.1389 45.2539C15.1621 45.443 15.2289 45.6241 15.334 45.783C15.4154 45.9014 15.5184 46.0033 15.6376 46.0836C14.7955 46.0748 13.9702 45.8465 13.2434 45.4213V45.4176ZM21.9416 43.767C21.5846 44.3389 21.1283 44.8424 20.5942 45.2539C19.9563 45.7517 19.2171 46.1037 18.4286 46.2852C17.6533 46.4562 17.1532 46.3747 17.0163 46.35C16.7476 46.3011 16.4865 46.2172 16.2396 46.1003C16.3903 45.9591 16.5897 45.7692 16.822 45.5421C17.0833 45.2837 17.6584 44.7073 18.355 43.9155C18.7139 43.5079 19.2955 42.8434 19.9718 41.9278C20.6038 41.0712 21.184 40.1775 21.7094 39.2517C21.4583 39.5603 21.0543 40.0567 20.5578 40.6731C19.7454 41.6811 19.5743 41.9045 19.1449 42.4198C18.7547 42.8893 18.3041 43.43 17.7042 44.0829C17.2602 44.5668 16.6516 45.2015 15.8887 45.9191C15.7832 45.8631 15.6897 45.7869 15.6136 45.6949C15.4913 45.5422 15.4184 45.3559 15.4046 45.1607C15.3741 44.8609 15.4774 44.612 15.5903 44.39C15.8582 43.8696 16.1683 43.5516 16.4966 43.1957C16.8795 42.7801 16.5111 43.1542 17.4909 42.0574C18.3812 41.061 18.2728 41.2139 18.7285 40.692C19.1106 40.2517 19.3108 40.0043 19.7039 39.6236C20.1618 39.1818 20.3904 39.037 20.6503 38.9453C20.8388 38.8791 21.213 38.7473 21.6264 38.8893C22.0399 39.0312 22.2467 39.3551 22.3697 39.5487C22.4599 39.6942 22.7278 40.152 22.7133 41.1098C22.6933 42.0478 22.4272 42.9641 21.9416 43.767ZM27.6845 42.398C27.6619 43.0698 27.6495 43.4118 27.5855 43.7117C27.4981 44.1178 27.3875 44.6083 27.0031 45.0741C26.8105 45.3008 26.5847 45.4971 26.3334 45.6564C26.1539 45.771 25.9629 45.8664 25.7634 45.9409C25.7755 43.2486 25.7881 40.5557 25.8012 37.8623C26.238 38.0865 26.8655 38.505 27.263 39.2372C27.5673 39.7983 27.6269 40.3369 27.683 40.8485C27.7209 41.2175 27.7078 41.6112 27.6845 42.398Z" fill="#20483F"/>
<path d="M0.724609 53.9249C0.762255 53.6732 0.822681 53.4255 0.905142 53.1847C0.996864 52.9169 1.09368 52.6323 1.27494 52.3965C1.63892 51.9205 2.2686 51.7415 2.63767 51.6687C4.0397 51.6508 5.44173 51.635 6.84377 51.6214C16.0247 51.5326 25.2064 51.538 34.3887 51.6374C34.7019 51.649 35.0057 51.747 35.2666 51.9205C35.6161 52.1665 35.7245 52.4889 35.8323 52.8085C35.9566 53.1785 35.9937 53.5723 35.9407 53.9591L0.724609 53.9249Z" fill="#20483F"/>
<path d="M0 55.3357C0.0386518 55.04 0.101216 54.748 0.187082 54.4624C0.300642 54.0861 0.374167 53.827 0.570714 53.533C0.694374 53.3383 0.850183 53.1661 1.03151 53.0235C1.40495 52.7368 1.80532 52.6742 2.13727 52.6334C2.81331 52.55 3.49452 52.5157 4.17553 52.5308C4.87218 52.5519 5.57029 52.5235 6.26621 52.5497C8.16907 52.6225 32.6377 52.4449 34.8922 52.6429C35.2221 52.6616 35.5391 52.7778 35.8029 52.9769C36.1668 53.2681 36.2767 53.6465 36.3852 54.0235C36.5141 54.4635 36.5522 54.925 36.4973 55.3801L0 55.3357Z" fill="#20483F"/>
<path d="M27.0872 1.2938L28.0816 0.936455C28.3392 0.834636 28.603 0.74931 28.8714 0.680996C29.3672 0.572554 29.579 0.622772 29.7261 0.708653C29.7741 0.736309 29.9634 0.846208 29.9488 0.964111C29.9313 1.11404 29.595 1.16353 29.0942 1.2989C28.7258 1.39788 28.3706 1.54053 28.0066 1.65625C27.7158 1.74903 27.3163 1.88122 26.8326 2.05648C26.8152 2.13771 26.7847 2.21591 26.7422 2.28796C26.5842 2.53177 26.2974 2.57907 25.3547 2.68461L25.2259 2.69893C24.4802 2.78188 24.0998 2.8242 23.893 2.83453C23.1497 2.8702 22.598 2.85782 21.953 2.84181C20.6099 2.80542 19.9395 2.78868 19.478 2.76903C18.0031 2.70644 17.7432 2.66859 15.8382 2.58344C15.7283 2.57544 13.928 2.50047 12.9482 2.729C12.1722 2.91022 11.991 2.98883 11.991 2.98883C11.7092 3.11255 11.5913 3.21153 11.378 3.19334C11.0599 3.16641 10.8437 2.91314 10.7549 2.80615L10.7537 2.80471C10.686 2.7242 10.4044 2.38954 10.4579 2.10018C10.5678 1.50702 12.0427 1.33381 12.558 1.2734C13.2263 1.19407 13.5473 1.23556 15.29 1.32871C16.4977 1.39349 17.1165 1.42624 17.7716 1.43133C18.8111 1.4408 19.3484 1.44516 20.0763 1.35855C21.5504 1.18388 21.5956 0.89931 22.892 0.810519C23.5312 0.766851 24.0903 0.835992 25.2055 0.975002C26.0729 1.08261 26.4921 1.18739 26.6953 1.4352C26.8129 1.39314 26.9447 1.34569 27.0872 1.2938Z" fill="#20483F"/>
<path d="M8.49414 33.6405C8.98769 33.6769 9.73166 33.7308 10.635 33.7926C13.2629 33.9746 14.5769 34.0648 15.2037 34.0838C17.9859 34.1806 20.3095 33.9862 22.9928 33.7621C23.7469 33.6995 24.3759 33.6383 24.8126 33.5939C24.4756 33.5496 23.9799 33.4877 23.3793 33.4258C20.6793 33.1464 18.6214 33.1413 16.5853 33.1427C14.5886 33.1427 13.006 33.1478 10.8607 33.353C9.87798 33.4491 9.06849 33.5561 8.49414 33.6405Z" fill="#20483F"/>
<path d="M16.1515 31.9757C16.0656 31.983 15.6478 30.892 15.9725 29.7581C16.0911 29.3418 16.2214 29.2312 16.3313 28.6926C16.3976 28.3688 16.5024 27.8542 16.3685 27.3054C16.1574 26.4408 15.4811 26.0158 15.5386 25.9554C15.5961 25.895 16.2804 26.2822 16.691 26.9954C16.8676 27.2991 16.9773 27.6371 17.0127 27.9867C17.0542 28.4561 16.9399 28.82 16.8213 29.1701C16.6757 29.6067 16.5621 29.7246 16.4231 30.0434C15.9805 31.0711 16.2294 31.9692 16.1515 31.9757Z" fill="#20483F"/>
<path d="M17.1237 34.1576C17.0954 34.1452 17.3785 33.766 17.4084 33.1387C17.4499 32.2762 16.9556 32.0397 16.8755 31.1321C16.7969 30.2355 17.1944 29.5179 17.2104 29.5215C17.0418 30.1359 17.0601 30.7865 17.2628 31.3905C17.4309 31.9254 17.5809 31.9909 17.6748 32.2937C17.9449 33.1729 17.1696 34.1772 17.1237 34.1576Z" fill="#20483F"/>
<path d="M17.9296 30.1194C17.9536 30.1143 17.7286 29.8829 17.7257 29.5248C17.7214 29.0299 18.1458 28.9207 18.2448 28.4062C18.2718 28.2429 18.2659 28.0758 18.2274 27.9148C18.1889 27.7538 18.1186 27.6022 18.0205 27.4688C18.0787 27.6522 18.0988 27.8457 18.0795 28.0372C18.0539 28.2116 17.9964 28.3799 17.9099 28.5335C17.749 28.8305 17.6187 28.8603 17.5314 29.0284C17.2744 29.5146 17.8888 30.131 17.9296 30.1194Z" fill="#20483F"/>
<path fill-rule="evenodd" clip-rule="evenodd" d="M2.59989 51.2963L2.56651 51.3029Z" fill="#20483F"/>
<path d="M27.9182 6.37064L18.5045 6.3497L9.17029 6.37047L9.13692 6.69373C7.69162 21.9165 6.27143 36.0764 4.82537 51.2696C4.09489 51.2778 3.3644 51.2865 2.63392 51.2959L2.59989 51.2963L2.56651 51.3029C2.47172 51.3216 2.3536 51.348 2.22266 51.3864L6.53655 6.7313L6.5783 6.37623L5.45594 6.37873L4.88534 6.37746C4.88534 6.37746 4.8832 6.37752 4.88117 6.3776C4.83925 6.37927 4.3676 6.33352 4.25114 6.12837C4.21849 6.06587 4.2034 5.9957 4.20746 5.92531C4.20746 5.80231 4.24823 5.68368 4.37635 5.49591C4.47955 5.34744 4.5968 5.20925 4.72649 5.08325C4.89343 4.91075 5.07406 4.75206 5.26663 4.60872C5.35067 4.54554 5.43252 4.49224 5.48313 4.45928C5.49083 4.45427 5.4978 4.44973 5.50394 4.44569C5.50394 4.44569 5.66919 4.33725 5.82642 4.24555C6.38258 3.92313 7.31727 3.83652 7.31727 3.83652C8.6698 3.71134 9.24416 3.70042 9.24416 3.70042C9.84545 3.68951 10.7488 3.66767 11.8932 3.62109H11.9659H11.9718H12.033H12.156H18.5045H24.8529H24.9759C24.9759 3.62109 25.043 3.62111 25.0371 3.62109H25.043H25.1157C26.2601 3.66767 27.1635 3.68951 27.7647 3.70042C27.7647 3.70042 28.3391 3.71134 29.6916 3.83652C29.6916 3.83652 30.6263 3.92313 31.1825 4.24555C31.3397 4.33725 31.505 4.44569 31.505 4.44569C31.5111 4.4497 31.5182 4.45432 31.5258 4.45929C31.5764 4.49225 31.6582 4.54555 31.7423 4.60872C31.9348 4.75206 32.1155 4.91075 32.2824 5.08325C32.4121 5.20925 32.5294 5.34744 32.6326 5.49591C32.7607 5.68368 32.8015 5.80231 32.8015 5.92531C32.8055 5.9957 32.7904 6.06587 32.7578 6.12837C32.6413 6.33353 32.1696 6.37927 32.1277 6.3776L32.1256 6.37752L32.1236 6.37746L31.553 6.37873L30.4372 6.37625L34.7792 51.3133C34.6562 51.2858 34.5305 51.2695 34.4036 51.2648L34.3987 51.2646L34.3938 51.2646C33.6562 51.2566 32.9186 51.2492 32.181 51.2424C30.7594 36.2865 29.3384 21.3293 27.9182 6.37064Z" fill="#20483F"/>
<path d="M11.7341 3.25366C11.6708 3.11695 11.6038 2.98186 11.5332 2.84855C12.0172 2.68862 12.512 2.56337 13.0139 2.47373C13.9282 2.31143 14.6649 2.30342 16.2292 2.35291C17.0002 2.37745 17.4126 2.39805 17.8978 2.4223C18.2473 2.43976 18.6347 2.45911 19.2211 2.48319C20.8415 2.54942 21.6517 2.58217 22.585 2.56689C23.7066 2.54746 24.8265 2.46997 25.9401 2.33472C25.761 2.70736 25.6022 3.01246 25.4613 3.26093C25.3534 3.25682 25.2432 3.25247 25.1306 3.24789L24.8707 3.23731H24.7708C24.7708 3.23731 24.6882 3.23731 24.6955 3.23731H24.6882H24.665L12.3432 3.23731C12.3206 3.23731 12.3129 3.23731 12.3206 3.23731H12.3129H12.2374H12.1375L11.8776 3.24789C11.8294 3.24986 11.7815 3.25178 11.7341 3.25366Z" fill="#20483F"/>
<path d="M12.4793 6.7359C12.4667 7.18415 12.4196 7.63738 12.3655 8.15768C12.3415 8.38848 12.3161 8.63249 12.2917 8.89511C12.2291 9.57197 12.2007 10.9897 12.1461 13.826C12.1367 14.2816 12.1461 15.7182 12.1709 18.5829C12.1833 20.1112 12.1949 20.8929 12.4686 21.6549C12.9913 23.1105 13.9667 24.0093 14.3518 24.3558C14.9434 24.8946 15.6332 25.3147 16.3835 25.593C17.1777 25.8842 17.608 25.8398 17.7718 25.8157C18.0064 25.7823 18.1182 25.7264 18.2933 25.6389C18.4306 25.5703 18.6068 25.4823 18.9117 25.3703C19.4595 25.1559 20.0355 25.0223 20.6217 24.9737C21.0049 24.9476 21.202 24.9807 21.3741 25.0097C21.5427 25.0381 21.6874 25.0624 21.9597 25.0232C22.633 24.9264 23.0851 24.5865 23.6201 24.1811L23.6256 24.177C24.2787 23.6821 24.8999 23.2115 25.1808 22.3725C25.3563 21.8492 25.3264 21.4096 25.2806 20.8114C25.2262 20.1836 25.0843 19.5666 24.8591 18.9781C24.7376 18.6533 24.6479 18.4833 24.5534 18.3039C24.4695 18.1447 24.3817 17.9782 24.2644 17.6899C24.0357 17.1144 23.8695 16.5162 23.7686 15.9053C23.639 15.2219 23.4651 13.9635 23.5211 11.5945C23.5559 10.094 23.666 8.90893 23.8658 6.75846L23.8676 6.73864L23.868 6.73443L18.5049 6.72249H18.5033L12.4793 6.7359Z" fill="#20483F"/>
<path d="M23.9045 6.36136L18.5041 6.34934L12.4811 6.36274C12.4734 5.96694 12.433 5.56166 12.3412 5.10473C12.2493 4.65261 12.1204 4.20943 11.956 3.77959C11.9592 3.78776 11.9624 3.79596 11.9655 3.80418L11.9714 3.81943C11.9929 3.87625 12.0132 3.93224 12.0327 3.98751C12.0722 4.03343 12.1133 4.0781 12.1557 4.12146L18.5041 4.1258L24.8525 4.12146C24.895 4.0781 24.936 4.03343 24.9755 3.98751C24.995 3.93224 25.0154 3.87625 25.0368 3.81943L25.0426 3.80425C25.0668 3.74184 25.0905 3.68066 25.1154 3.62074C25.1578 3.62246 25.1998 3.62415 25.2416 3.62581C24.9971 4.00442 24.8186 4.17955 24.6858 4.23937C24.6249 4.26571 24.5666 4.29788 24.5119 4.33544C24.2985 4.48761 24.1361 4.70072 24.046 4.94679C24.0081 5.30246 23.9608 5.78558 23.9045 6.36136Z" fill="#20483F"/>
</svg>
