<svg width="210" height="103" viewBox="0 0 210 103" fill="none" xmlns="http://www.w3.org/2000/svg">
<g id="Logo">
<path id="Vector" d="M150.342 22.6087V40.1747C150.342 40.2068 150.329 40.2376 150.306 40.2603C150.284 40.283 150.253 40.2958 150.221 40.2958L146.843 40.2939C146.779 40.2939 146.747 40.2611 146.747 40.1955L146.749 22.6106C146.749 22.5488 146.718 22.5179 146.656 22.5179L144.194 22.5122C144.169 22.5122 144.145 22.5023 144.127 22.4846C144.109 22.4668 144.099 22.4428 144.099 22.4177L144.096 19.5849C144.096 19.5193 144.128 19.4866 144.194 19.4866H146.643C146.702 19.4866 146.732 19.4576 146.732 19.3996C146.715 16.1205 147.363 12.0433 151.477 11.6727C152.877 11.5466 154.142 11.7055 155.272 12.1492C155.303 12.1612 155.328 12.1843 155.343 12.214C155.359 12.2437 155.362 12.2779 155.353 12.31L154.557 15.1844C154.526 15.2979 154.461 15.3224 154.362 15.2581C153.458 14.6644 152.176 14.4885 151.287 15.1882C150.175 16.0637 150.247 18.0021 150.38 19.3882C150.386 19.4538 150.422 19.4866 150.487 19.4866L154.005 19.4884C154.084 19.4884 154.124 19.5275 154.124 19.6057V22.3893C154.124 22.4234 154.111 22.4561 154.087 22.4803C154.063 22.5044 154.031 22.5179 153.997 22.5179L150.436 22.5141C150.411 22.5141 150.387 22.5241 150.37 22.5418C150.352 22.5596 150.342 22.5836 150.342 22.6087Z" fill="white"/>
<path id="Vector_2" d="M166.045 14.4174L157.684 17.931C157.661 17.9405 157.635 17.9405 157.611 17.9309C157.588 17.9214 157.569 17.9031 157.559 17.88L156.602 15.7393C156.592 15.7164 156.591 15.6904 156.599 15.6667C156.608 15.643 156.625 15.6236 156.648 15.6126L164.743 11.6508C164.755 11.645 164.768 11.6417 164.78 11.6408C164.793 11.64 164.806 11.6417 164.818 11.646C164.83 11.6502 164.842 11.6568 164.851 11.6655C164.861 11.6741 164.868 11.6845 164.874 11.6962L166.094 14.2869C166.099 14.2987 166.103 14.3115 166.103 14.3245C166.104 14.3375 166.102 14.3505 166.097 14.3627C166.092 14.3749 166.085 14.386 166.076 14.3954C166.067 14.4048 166.057 14.4123 166.045 14.4174Z" fill="white"/>
<path id="Vector_3" d="M117.937 17.46C115.299 19.4777 115.144 24.264 115.155 27.2122C115.168 30.4497 115.584 36.8036 120.036 37.2726C122.621 37.5449 124.408 35.7654 125.074 33.5037C125.085 33.4672 125.104 33.4336 125.13 33.4056C125.156 33.3776 125.188 33.356 125.223 33.3423C125.259 33.3286 125.297 33.3232 125.335 33.3266C125.373 33.33 125.41 33.3421 125.443 33.3619L128.041 34.9258C128.085 34.9522 128.12 34.9917 128.141 35.0388C128.161 35.0859 128.167 35.1383 128.156 35.1887C128.048 35.7409 127.812 36.1058 127.451 36.7431C126.019 39.2633 123.848 40.5725 120.938 40.6709C114.206 40.8997 112.196 35.0695 111.689 29.559C111.408 26.4967 111.627 23.4546 112.345 20.4327C113.531 15.4403 117.086 12.4014 122.449 13.4093C125.392 13.9615 127.468 16.3707 128.362 19.196C128.381 19.259 128.362 19.3063 128.306 19.3378L125.388 20.9698C125.376 20.9763 125.363 20.9801 125.35 20.9808C125.336 20.9816 125.323 20.9794 125.311 20.9743C125.298 20.9692 125.287 20.9614 125.278 20.9515C125.269 20.9415 125.263 20.9297 125.259 20.9168C124.92 19.7192 124.461 18.7793 123.882 18.0973C122.39 16.3424 119.743 16.0776 117.937 17.46Z" fill="white"/>
<path id="Vector_4" d="M139.177 37.662C137.626 40.7218 133.646 41.516 130.818 39.8141C128.579 38.4676 127.95 35.1866 128.6 32.8644C129.759 28.7249 135.642 27.8909 139.147 27.9893C139.2 27.9918 139.229 27.9666 139.236 27.9136C139.418 26.3579 139.26 25.0184 138.761 23.8951C138.364 23.0051 137.607 22.473 136.49 22.2991C134.332 21.9643 132.605 23.2257 131.703 25.0827C131.693 25.1046 131.677 25.1237 131.657 25.1382C131.638 25.1527 131.615 25.1623 131.591 25.1662C131.566 25.1701 131.541 25.1682 131.518 25.1605C131.495 25.1529 131.473 25.1399 131.456 25.1224L129.404 23.0101C129.356 22.9609 129.352 22.9086 129.393 22.8532C133.222 17.4447 141.788 17.5374 142.717 25.391C142.753 25.7061 142.773 26.7204 142.776 28.4337C142.778 31.235 142.782 34.0369 142.789 36.8394C142.791 37.9942 142.973 39.103 143.335 40.1658C143.34 40.1809 143.342 40.1969 143.34 40.2126C143.337 40.2283 143.331 40.2433 143.322 40.2562C143.313 40.2691 143.301 40.2797 143.286 40.287C143.272 40.2943 143.257 40.2981 143.241 40.2982H140.115C140.043 40.2983 139.973 40.2735 139.917 40.228C139.861 40.1825 139.823 40.1191 139.808 40.0485L139.332 37.6847C139.3 37.5284 139.249 37.5208 139.177 37.662ZM132.031 33.1897C131.607 34.1075 131.584 35.0297 131.962 35.9563C132.779 37.957 135.151 38.1821 136.805 37.2139C139.116 35.8636 139.3 33.1972 139.305 30.8069C139.305 30.7489 139.276 30.7162 139.218 30.7086C137.298 30.493 135.584 30.7048 134.077 31.344C133.086 31.7663 132.404 32.3816 132.031 33.1897Z" fill="white"/>
<path id="Vector_5" d="M157.15 31.1628C157.265 33.502 158.05 37.1234 160.934 37.4562C163.521 37.755 165.136 36.5561 165.966 34.1714C165.973 34.1511 165.984 34.1327 165.999 34.1176C166.015 34.1026 166.033 34.0914 166.054 34.085C166.074 34.0785 166.096 34.077 166.117 34.0805C166.138 34.084 166.158 34.0925 166.176 34.1052L168.557 35.8696C168.597 35.8991 168.625 35.942 168.636 35.9905C168.648 36.039 168.642 36.09 168.619 36.1344C166.868 39.566 164.149 41.0543 160.463 40.5992C156.579 40.1188 154.551 37.2028 153.95 33.5398C153.156 28.7157 153.685 20.3591 160.047 19.2434C164.627 18.4416 167.641 21.108 168.405 25.4934C168.718 27.2924 168.858 29.1053 168.825 30.9321C168.824 30.9938 168.792 31.0247 168.731 31.0247L157.284 31.0228C157.189 31.0228 157.145 31.0695 157.15 31.1628ZM161.902 22.1235C158.324 21.9193 157.367 25.3799 157.169 28.2467C157.162 28.3337 157.203 28.3772 157.29 28.3772H165.274C165.325 28.3772 165.352 28.3514 165.353 28.2997C165.373 26.7402 165.112 25.3314 164.568 24.0732C164.111 23.0142 163.108 22.1916 161.902 22.1235Z" fill="white"/>
<path id="Vector_6" d="M185.819 44H182.46C182.418 44 182.383 44.0347 182.383 44.0775V71.7967C182.383 71.8395 182.418 71.8742 182.46 71.8742H185.819C185.862 71.8742 185.896 71.8395 185.896 71.7967V44.0775C185.896 44.0347 185.862 44 185.819 44Z" fill="white"/>
<path id="Vector_7" d="M177.737 48.4355C178.937 48.4355 179.91 47.4627 179.91 46.2627C179.91 45.0626 178.937 44.0898 177.737 44.0898C176.537 44.0898 175.564 45.0626 175.564 46.2627C175.564 47.4627 176.537 48.4355 177.737 48.4355Z" fill="white"/>
<path id="Vector_8" d="M190.503 48.4372C191.705 48.4372 192.679 47.4627 192.679 46.2606C192.679 45.0585 191.705 44.084 190.503 44.084C189.301 44.084 188.326 45.0585 188.326 46.2606C188.326 47.4627 189.301 48.4372 190.503 48.4372Z" fill="white"/>
<path id="Vector_9" d="M89.3542 60.4301C89.0157 65.2901 87.3573 70.3355 82.1531 71.5646C81.3979 71.7424 80.1442 71.842 78.3918 71.8634C76.8058 71.8823 75.2198 71.8823 73.6339 71.8634C73.6106 71.8629 73.5885 71.8534 73.5722 71.8367C73.556 71.8201 73.5469 71.7978 73.5469 71.7745V45.3016C73.5469 45.2423 73.5771 45.2121 73.6376 45.2108C77.4803 45.1226 79.9141 45.1251 80.939 45.2184C88.5392 45.9162 89.7684 54.4695 89.3542 60.4301ZM83.3917 49.9933C81.7276 48.2138 79.29 48.4597 77.104 48.4994C77.0334 48.5006 76.9981 48.5366 76.9981 48.6072V68.3744C76.9981 68.3962 77.0066 68.417 77.0218 68.4326C77.037 68.4481 77.0576 68.4571 77.0794 68.4576C79.7496 68.5049 82.0756 68.8131 83.9174 66.4304C84.4936 65.6853 84.904 64.8684 85.1485 63.9796C86.0613 60.6501 86.1344 57.2436 85.3679 53.7603C85.0502 52.3193 84.3915 51.0637 83.3917 49.9933Z" fill="white"/>
<path id="Vector_10" d="M136.726 48.6609V57.5886C136.726 57.6147 136.736 57.6397 136.755 57.6582C136.773 57.6766 136.798 57.687 136.824 57.687H145.139C145.166 57.687 145.191 57.6973 145.209 57.7158C145.227 57.7342 145.238 57.7592 145.238 57.7853V60.9925C145.238 61.0186 145.227 61.0436 145.209 61.0621C145.191 61.0805 145.166 61.0909 145.139 61.0909H136.824C136.798 61.0909 136.773 61.1012 136.755 61.1197C136.736 61.1381 136.726 61.1631 136.726 61.1892V68.3677C136.726 68.3937 136.736 68.4188 136.755 68.4372C136.773 68.4557 136.798 68.466 136.824 68.466H146.632C146.658 68.466 146.683 68.4764 146.701 68.4948C146.719 68.5132 146.73 68.5383 146.73 68.5643L146.747 71.7716C146.747 71.7977 146.737 71.8227 146.718 71.8411C146.7 71.8596 146.675 71.8699 146.649 71.8699H133.241C133.215 71.8699 133.19 71.8596 133.171 71.8411C133.153 71.8227 133.143 71.7977 133.143 71.7716L133.144 45.274C133.144 45.2611 133.147 45.2484 133.152 45.2364C133.157 45.2245 133.164 45.2136 133.173 45.2045C133.182 45.1954 133.193 45.1881 133.205 45.1832C133.217 45.1783 133.23 45.1757 133.243 45.1757L146.637 45.1738C146.663 45.1738 146.688 45.1842 146.707 45.2026C146.725 45.2211 146.736 45.2461 146.736 45.2722L146.739 48.4643C146.739 48.4903 146.729 48.5154 146.71 48.5338C146.692 48.5522 146.667 48.5626 146.641 48.5626H136.824C136.798 48.5626 136.773 48.573 136.755 48.5914C136.736 48.6098 136.726 48.6349 136.726 48.6609Z" fill="white"/>
<path id="Vector_11" d="M104.791 67.9599C103.312 71.4622 99.7758 72.8048 96.2584 72.0049C90.2165 70.632 89.8855 62.4191 90.7233 57.6877C91.3643 54.0568 93.4199 50.9687 97.3798 50.6926C99.3276 50.5565 101.389 50.9234 102.845 52.2357C105.844 54.94 106.012 59.157 105.897 62.8862C105.844 64.6487 105.475 66.3399 104.791 67.9599ZM98.4728 53.8696C94.5565 53.5935 93.9022 58.55 93.957 61.2826C94.0024 63.6143 94.1669 66.9387 96.266 68.4402C96.9455 68.9256 97.7164 69.1065 98.5787 68.983C102.196 68.461 102.329 63.8488 102.317 61.0973C102.304 58.6067 101.92 54.1155 98.4728 53.8696Z" fill="white"/>
<path id="Vector_12" d="M111.322 53.7387C112.761 51.3219 114.915 50.3335 117.786 50.7735C121.797 51.3881 122.742 55.5901 122.741 58.9656C122.739 63.2356 122.736 67.5056 122.731 71.7756C122.73 71.8412 122.697 71.874 122.633 71.874L119.244 71.8702C119.184 71.8702 119.153 71.8399 119.153 71.7794C119.157 67.3796 119.155 62.9828 119.146 58.5893C119.143 57.8278 119.004 57.0203 118.728 56.1668C118.255 54.7107 117.465 54.0186 115.903 53.8805C112.033 53.5345 111.428 57.3658 111.409 60.4368C111.388 64.2064 111.387 67.979 111.407 71.7548C111.407 71.7859 111.395 71.8158 111.373 71.8377C111.351 71.8597 111.321 71.8721 111.29 71.8721H108.034C107.972 71.8721 107.941 71.8412 107.941 71.7794C107.942 65.8667 107.94 59.9571 107.934 54.0507C107.934 53.2716 107.785 52.3103 107.489 51.1669C107.473 51.1026 107.498 51.0704 107.565 51.0704H110.322C110.558 51.0704 110.699 51.1864 110.746 51.4184L111.201 53.7179C111.224 53.8301 111.264 53.837 111.322 53.7387Z" fill="white"/>
<path id="Vector_13" d="M152.827 53.6637C152.828 53.6764 152.833 53.6886 152.841 53.6984C152.849 53.7083 152.86 53.7153 152.873 53.7184C152.885 53.7216 152.898 53.7207 152.91 53.716C152.922 53.7112 152.932 53.7029 152.939 53.692C154.1 51.8634 155.149 50.9027 157.43 50.812C160.028 50.7086 161.793 51.7808 162.723 54.0287C162.749 54.0942 162.782 54.0967 162.819 54.0362C163.765 52.5064 164.555 51.3036 166.439 50.846C167.412 50.609 168.368 50.5831 169.306 50.7685C172.785 51.4549 173.409 54.6867 173.411 57.6765C173.415 62.36 173.416 67.0606 173.413 71.7781C173.413 71.8027 173.403 71.8263 173.386 71.8437C173.369 71.861 173.345 71.8708 173.32 71.8708H169.964C169.893 71.8708 169.858 71.8361 169.858 71.7668C169.86 67.6355 169.859 63.5066 169.854 59.3804C169.852 57.8202 170.047 55.1784 168.434 54.2556C167.348 53.6353 165.735 53.8717 164.801 54.6981C163.268 56.054 163.26 58.4764 163.273 60.619C163.292 64.3356 163.302 68.0527 163.302 71.7706C163.302 71.8374 163.268 71.8708 163.199 71.8708H159.896C159.829 71.8708 159.796 71.8374 159.796 71.7706C159.801 67.4615 159.798 63.1549 159.788 58.8509C159.782 56.8728 159.584 53.8036 156.819 53.9076C154.455 53.9965 153.196 56.1466 153.186 58.3043C153.175 60.7451 153.173 65.2344 153.181 71.7725C153.182 71.838 153.149 71.8708 153.082 71.8708L149.726 71.8727C149.654 71.8727 149.618 71.8361 149.618 71.763C149.608 66.1718 149.606 60.5818 149.612 54.9931C149.615 53.4891 149.494 52.2183 149.251 51.1807C149.233 51.1063 149.263 51.0691 149.34 51.0691H152.233C152.303 51.0691 152.348 51.1019 152.369 51.1675C152.628 51.9806 152.78 52.8127 152.827 53.6637Z" fill="white"/>
<path id="Vector_14" d="M194.239 60.101C194.443 55.5738 196.189 51.0598 201.346 50.6684C206.298 50.2902 208.952 53.8283 209.547 58.2988C210.154 62.8619 209.806 70.324 204.231 71.8955C201.552 72.65 198.5 72.1111 196.597 69.9591C194.407 67.4799 194.088 63.4463 194.239 60.101ZM205.805 65.1577C206.361 62.3135 206.885 54.1233 202.176 53.8643C197.146 53.5882 197.528 61.8899 198.087 64.8702C198.365 66.3528 199.124 68.0226 200.517 68.6883C202.123 69.4541 204.092 68.8112 204.978 67.27C205.396 66.5451 205.671 65.841 205.805 65.1577Z" fill="white"/>
<path id="Vector_15" d="M179.391 51.0703H176.082C176.04 51.0703 176.006 51.1042 176.006 51.146V71.7963C176.006 71.8381 176.04 71.872 176.082 71.872H179.391C179.433 71.872 179.467 71.8381 179.467 71.7963V51.146C179.467 51.1042 179.433 51.0703 179.391 51.0703Z" fill="white"/>
<path id="Vector_16" d="M192.208 51.0703H188.819C188.769 51.0703 188.729 51.1109 188.729 51.1611V71.7812C188.729 71.8313 188.769 71.872 188.819 71.872H192.208C192.258 71.872 192.299 71.8313 192.299 71.7812V51.1611C192.299 51.1109 192.258 51.0703 192.208 51.0703Z" fill="white"/>
<path id="Vector_17" d="M209.33 75.8438H70.5379C70.4199 75.8438 70.3242 75.9394 70.3242 76.0574V76.1898C70.3242 76.3078 70.4199 76.4035 70.5379 76.4035H209.33C209.448 76.4035 209.544 76.3078 209.544 76.1898V76.0574C209.544 75.9394 209.448 75.8438 209.33 75.8438Z" fill="white"/>
<path id="Vector_18" d="M117.905 84.8019C118.644 83.9182 119.537 83.5589 120.583 83.724C121.975 83.9415 122.826 85.1253 122.898 86.4812C122.947 87.404 122.955 89.6783 122.921 93.3041C122.921 93.3735 122.885 93.4081 122.815 93.4081L121.5 93.41C121.482 93.41 121.465 93.4066 121.448 93.3998C121.432 93.3931 121.417 93.3832 121.404 93.3707C121.391 93.3582 121.381 93.3434 121.375 93.3271C121.368 93.3109 121.364 93.2934 121.364 93.2758C121.367 91.3557 121.365 89.406 121.36 87.4267C121.355 84.1835 117.767 84.6128 117.792 87.3284C117.808 89.3543 117.815 91.3526 117.813 93.323C117.813 93.3466 117.803 93.3692 117.786 93.3859C117.769 93.4026 117.746 93.4119 117.722 93.4119L116.215 93.4025C116.174 93.4012 116.154 93.381 116.154 93.3419V80.6643C116.154 80.6502 116.16 80.6368 116.17 80.6268C116.18 80.6169 116.193 80.6113 116.207 80.6113H117.764C117.795 80.6113 117.811 80.6277 117.811 80.6605L117.818 84.7717C117.818 84.8612 117.847 84.8713 117.905 84.8019Z" fill="white"/>
<path id="Vector_19" d="M91.6765 82.6752C92.2237 82.6752 92.6674 82.2315 92.6674 81.6843C92.6674 81.137 92.2237 80.6934 91.6765 80.6934C91.1292 80.6934 90.6855 81.137 90.6855 81.6843C90.6855 82.2315 91.1292 82.6752 91.6765 82.6752Z" fill="white"/>
<path id="Vector_20" d="M169.43 82.6595C169.987 82.6254 170.411 82.1601 170.378 81.6201C170.345 81.0801 169.867 80.6699 169.311 80.704C168.754 80.738 168.33 81.2034 168.363 81.7434C168.396 82.2834 168.874 82.6935 169.43 82.6595Z" fill="white"/>
<path id="Vector_21" d="M86.3223 91.8211L90.3181 91.8192C90.3401 91.8192 90.3613 91.828 90.3769 91.8436C90.3925 91.8592 90.4013 91.8803 90.4013 91.9024L90.4107 93.3188C90.4107 93.3409 90.402 93.362 90.3864 93.3776C90.3708 93.3932 90.3496 93.402 90.3275 93.402L84.6203 93.4134C84.5982 93.4134 84.5771 93.4046 84.5615 93.389C84.5459 93.3734 84.5371 93.3522 84.5371 93.3301L84.539 81.2179C84.539 81.207 84.5411 81.1962 84.5453 81.1861C84.5495 81.176 84.5556 81.1668 84.5634 81.1591C84.5711 81.1514 84.5803 81.1452 84.5904 81.141C84.6005 81.1369 84.6113 81.1347 84.6222 81.1347L86.1521 81.1328C86.1741 81.1328 86.1953 81.1416 86.2109 81.1572C86.2265 81.1728 86.2353 81.194 86.2353 81.216L86.2391 91.7379C86.2391 91.7599 86.2478 91.7811 86.2634 91.7967C86.279 91.8123 86.3002 91.8211 86.3223 91.8211Z" fill="white"/>
<path id="Vector_22" d="M113.285 85.4336C113.27 87.0549 113.268 88.6768 113.28 90.2993C113.286 91.1522 113.176 91.7895 114.065 92.0107C114.454 92.1091 114.783 91.9559 115.19 91.8783C115.215 91.8738 115.241 91.879 115.263 91.893C115.284 91.9071 115.3 91.9288 115.307 91.954L115.576 92.9941C115.588 93.0415 115.59 93.0912 115.58 93.1394C115.571 93.1876 115.551 93.2332 115.522 93.2728C115.493 93.3124 115.455 93.3451 115.412 93.3686C115.368 93.392 115.32 93.4055 115.271 93.4082C114.83 93.4309 114.373 93.5954 113.974 93.5614C112.394 93.429 111.599 92.4702 111.587 90.6851C111.576 88.9251 111.572 87.1627 111.576 85.3977C111.576 85.3716 111.566 85.3466 111.548 85.3281C111.53 85.3097 111.505 85.2994 111.48 85.2994H110.676C110.518 85.2994 110.439 85.2199 110.439 85.0611V84.0248C110.439 83.8672 110.518 83.7884 110.676 83.7884H111.48C111.505 83.7884 111.529 83.7784 111.546 83.7607C111.564 83.743 111.574 83.7189 111.574 83.6938L111.578 81.3754C111.578 81.3629 111.583 81.3508 111.591 81.342C111.6 81.3331 111.611 81.3281 111.623 81.3281H113.231C113.262 81.3281 113.278 81.3439 113.278 81.3754L113.28 83.6957C113.28 83.7588 113.312 83.7903 113.376 83.7903L115.124 83.7922C115.148 83.7927 115.171 83.8025 115.188 83.8194C115.205 83.8364 115.214 83.8592 115.214 83.8829L115.207 85.2313C115.207 85.2513 115.199 85.2706 115.185 85.2848C115.17 85.2989 115.151 85.3069 115.131 85.3069L113.422 85.2994C113.332 85.2981 113.287 85.3428 113.285 85.4336Z" fill="white"/>
<path id="Vector_23" d="M101.789 89.2263C101.808 89.9676 101.952 90.5942 102.222 91.106C103.1 92.7815 105.301 92.2482 105.779 90.5425C105.782 90.5346 105.786 90.5274 105.791 90.5215C105.797 90.5156 105.804 90.5111 105.812 90.5085C105.82 90.5059 105.828 90.5053 105.836 90.5066C105.844 90.5079 105.852 90.5111 105.859 90.516L106.972 91.3235C106.986 91.3338 106.996 91.3483 107 91.3647C107.005 91.3811 107.003 91.3985 106.997 91.4143C106.25 93.2259 104.266 94.0069 102.493 93.3337C100.978 92.7607 100.411 91.3386 100.242 89.7898C99.9718 87.3258 100.507 83.4737 103.911 83.6798C106.798 83.8557 107.226 86.8057 107.044 89.0277C107.039 89.0857 107.007 89.1147 106.948 89.1147L101.895 89.1185C101.823 89.1185 101.788 89.1544 101.789 89.2263ZM101.956 87.9725L105.39 87.9366C105.432 87.9361 105.473 87.9187 105.503 87.8883C105.534 87.8578 105.55 87.8168 105.55 87.774V87.7418C105.547 87.3878 105.499 87.0378 105.411 86.7116C105.322 86.3855 105.194 86.0896 105.034 85.8409C104.874 85.5923 104.684 85.3957 104.477 85.2624C104.27 85.1291 104.049 85.0617 103.826 85.0641L103.459 85.0679C103.009 85.0726 102.581 85.3609 102.268 85.8695C101.955 86.378 101.784 87.0651 101.791 87.7796V87.8118C101.791 87.8331 101.796 87.8542 101.804 87.8739C101.812 87.8935 101.825 87.9113 101.84 87.9262C101.855 87.9412 101.873 87.9529 101.893 87.9609C101.913 87.9688 101.934 87.9728 101.956 87.9725Z" fill="white"/>
<path id="Vector_24" d="M125.227 89.232C125.227 89.5383 125.329 89.8882 125.365 90.1586C125.67 92.4884 128.495 92.8874 129.248 90.5425C129.25 90.5354 129.254 90.529 129.259 90.5238C129.264 90.5185 129.27 90.5145 129.277 90.5121C129.284 90.5097 129.292 90.509 129.299 90.51C129.306 90.511 129.313 90.5137 129.319 90.5179L130.443 91.3424C130.458 91.3529 130.469 91.3685 130.473 91.3864C130.478 91.4043 130.477 91.4235 130.469 91.4407C129.79 92.9082 128.63 93.606 126.99 93.5341C124.962 93.4453 124.028 91.9419 123.718 90.1189C123.636 89.6348 123.641 88.7535 123.733 87.4752C123.818 86.2977 124.198 85.3395 124.873 84.6008C126.04 83.3243 128.826 83.3489 129.758 84.909C130.455 86.0752 130.675 87.4544 130.418 89.0466C130.411 89.0908 130.385 89.1128 130.341 89.1128L125.335 89.1223C125.263 89.1223 125.227 89.1588 125.227 89.232ZM125.39 87.9385L128.888 87.9461C128.917 87.9461 128.944 87.9347 128.964 87.9145C128.985 87.8943 128.996 87.8668 128.996 87.8383V87.687C128.997 87.3433 128.954 87.003 128.871 86.6854C128.788 86.3677 128.665 86.079 128.511 85.8358C128.356 85.5926 128.172 85.3996 127.97 85.2678C127.768 85.136 127.551 85.0681 127.332 85.0679H126.954C126.512 85.0674 126.087 85.3422 125.774 85.8319C125.46 86.3216 125.283 86.9861 125.282 87.6794V87.8307C125.282 87.8593 125.293 87.8867 125.314 87.9069C125.334 87.9271 125.361 87.9385 125.39 87.9385Z" fill="white"/>
<path id="Vector_25" d="M135.856 89.1995C135.888 90.2301 136.219 91.7581 137.409 92.0228C138.581 92.2838 139.384 91.8161 139.818 90.6196C139.824 90.6039 139.833 90.5897 139.846 90.5781C139.858 90.5666 139.873 90.558 139.889 90.5531C139.905 90.5481 139.922 90.547 139.938 90.5497C139.955 90.5523 139.971 90.5588 139.984 90.5686L140.991 91.2947C141.018 91.3157 141.038 91.3454 141.047 91.3791C141.055 91.4128 141.052 91.4484 141.038 91.4801C140.37 92.9374 139.217 93.6207 137.579 93.53C134.983 93.3881 134.219 90.9525 134.215 88.7891C134.213 87.2403 134.5 85.614 135.571 84.5153C136.755 83.3012 139.463 83.3977 140.368 84.9275C141.062 86.0987 141.279 87.4698 141.019 89.0406C141.011 89.0885 140.983 89.1125 140.934 89.1125L135.936 89.1162C135.88 89.1162 135.854 89.144 135.856 89.1995ZM136.009 87.9513L139.44 87.94C139.48 87.9395 139.518 87.9234 139.546 87.895C139.574 87.8667 139.589 87.8285 139.589 87.7887V87.7566C139.588 87.4022 139.544 87.0514 139.458 86.7243C139.373 86.3971 139.249 86.1 139.093 85.85C138.937 85.5999 138.752 85.4018 138.549 85.2669C138.345 85.132 138.128 85.0629 137.908 85.0637H137.519C137.075 85.0653 136.651 85.351 136.339 85.8582C136.028 86.3653 135.854 87.0523 135.856 87.7679V87.8001C135.856 87.8201 135.86 87.8399 135.868 87.8584C135.876 87.8769 135.887 87.8936 135.901 87.9077C135.916 87.9218 135.932 87.9329 135.951 87.9404C135.97 87.9479 135.989 87.9516 136.009 87.9513Z" fill="white"/>
<path id="Vector_26" d="M150.44 92.5911C150.432 92.5824 150.423 92.576 150.412 92.5728C150.401 92.5696 150.389 92.5698 150.379 92.5734C150.368 92.5769 150.359 92.5836 150.353 92.5925C150.346 92.6014 150.343 92.6122 150.343 92.6232L150.341 96.7382C150.341 96.7507 150.339 96.7632 150.334 96.7748C150.329 96.7864 150.322 96.7969 150.314 96.8057C150.305 96.8145 150.294 96.8214 150.283 96.8261C150.271 96.8307 150.259 96.833 150.247 96.8327H148.726C148.668 96.8327 148.639 96.8037 148.639 96.7457C148.638 92.6976 148.638 88.6299 148.639 84.5427C148.639 84.295 148.566 84.1437 148.496 83.9035C148.473 83.8254 148.503 83.7863 148.585 83.7863H149.789C149.864 83.7863 149.911 83.8216 149.931 83.8922L150.182 84.7772C150.204 84.8516 150.237 84.8573 150.283 84.7942C151.313 83.3797 153.295 83.323 154.396 84.641C155.818 86.3411 155.782 90.2386 154.761 92.141C153.87 93.8013 151.603 94.0718 150.44 92.5911ZM153.477 91.1179C153.839 90.0362 153.951 88.9243 153.815 87.7821C153.658 86.481 153.409 85.1611 151.837 85.267C150.74 85.3407 150.373 86.4186 150.353 87.3793C150.321 88.7957 150.139 90.6187 150.776 91.4829C151.474 92.4303 153.085 92.2847 153.477 91.1179Z" fill="white"/>
<path id="Vector_27" d="M157.522 89.2179C157.502 90.1294 157.744 91.1884 158.489 91.7519C159.319 92.3817 160.505 92.1812 161.117 91.2811C161.276 91.0478 161.424 90.8133 161.562 90.5776C161.584 90.5385 161.613 90.5322 161.649 90.5587L162.719 91.3548C162.73 91.3628 162.738 91.3744 162.741 91.3876C162.744 91.4008 162.742 91.4146 162.736 91.4267C162.101 92.7788 160.977 93.5447 159.457 93.5352C155.552 93.5106 155.378 88.4369 156.369 85.8046C156.823 84.5962 157.802 83.853 159.113 83.7244C162.276 83.4143 162.974 86.5591 162.812 89.0364C162.808 89.0881 162.78 89.1139 162.728 89.1139L157.626 89.1158C157.599 89.1158 157.573 89.1265 157.553 89.1456C157.534 89.1647 157.523 89.1907 157.522 89.2179ZM157.645 87.9604H161.136C161.173 87.9604 161.208 87.9458 161.234 87.9199C161.26 87.8941 161.274 87.8589 161.274 87.8223V87.7977C161.274 87.0735 161.091 86.379 160.766 85.8669C160.44 85.3547 159.999 85.0671 159.538 85.0671H159.243C158.783 85.0671 158.341 85.3547 158.016 85.8669C157.69 86.379 157.507 87.0735 157.507 87.7977V87.8223C157.507 87.8589 157.522 87.8941 157.548 87.9199C157.574 87.9458 157.609 87.9604 157.645 87.9604Z" fill="white"/>
<path id="Vector_28" d="M172.663 89.2549C172.681 90.1834 172.967 91.3067 173.765 91.8267C174.998 92.6285 176.242 91.7624 176.696 90.5446C176.699 90.5379 176.703 90.5318 176.708 90.527C176.714 90.5221 176.72 90.5185 176.727 90.5165C176.734 90.5145 176.741 90.5141 176.748 90.5154C176.756 90.5166 176.762 90.5195 176.768 90.5238L177.92 91.3785C177.941 91.3949 177.946 91.4157 177.933 91.4409C177.038 93.0635 175.76 93.7512 174.1 93.5041C172.088 93.2072 171.248 91.5355 171.114 89.6841C170.987 87.9671 171.067 86.1611 172.127 84.7693C173.306 83.2224 176.354 83.3226 177.292 85.1078C177.884 86.2336 178.087 87.5428 177.899 89.0355C177.893 89.0859 177.864 89.1111 177.812 89.1111L172.799 89.1168C172.705 89.1168 172.66 89.1628 172.663 89.2549ZM172.854 87.9538L176.28 87.9425C176.326 87.942 176.37 87.9234 176.402 87.8909C176.434 87.8583 176.452 87.8143 176.452 87.7685V87.7515C176.451 87.398 176.405 87.0482 176.316 86.722C176.228 86.3958 176.098 86.0995 175.936 85.8502C175.773 85.6008 175.58 85.4032 175.368 85.2687C175.157 85.1342 174.93 85.0654 174.701 85.0662H174.41C173.948 85.0678 173.506 85.3528 173.181 85.8585C172.856 86.3642 172.675 87.0492 172.678 87.7628V87.7798C172.678 87.8029 172.682 87.8256 172.691 87.8469C172.7 87.8681 172.713 87.8874 172.729 87.9035C172.746 87.9197 172.765 87.9325 172.786 87.9411C172.808 87.9498 172.831 87.9541 172.854 87.9538Z" fill="white"/>
<path id="Vector_29" d="M180.403 85.0102C181.053 84.0848 181.904 83.6486 182.958 83.7016C185.229 83.815 185.63 85.9255 185.615 87.7579C185.599 89.6401 185.584 91.4864 185.572 93.2968C185.57 93.3661 185.536 93.4008 185.468 93.4008L184.104 93.4159C184.037 93.4172 184.004 93.3838 184.004 93.3157C184.003 91.4978 184.008 89.6616 184.019 87.8071C184.025 86.7405 183.822 85.4111 182.671 85.1955C180.908 84.8665 180.481 86.4398 180.456 87.8524C180.424 89.6981 180.408 91.5035 180.411 93.2684C180.412 93.3605 180.366 93.4065 180.273 93.4065H178.987C178.952 93.4065 178.918 93.3925 178.893 93.3677C178.869 93.3429 178.855 93.3092 178.855 93.2741C178.857 90.7124 178.856 88.1279 178.851 85.5208C178.849 84.9837 178.73 84.4353 178.666 83.8869C178.657 83.8175 178.688 83.7829 178.758 83.7829L179.836 83.7961C179.916 83.7971 179.994 83.8276 180.053 83.882C180.113 83.9363 180.151 84.0107 180.159 84.0911L180.258 84.9724C180.26 84.9883 180.267 85.0033 180.278 85.0154C180.288 85.0274 180.302 85.036 180.318 85.0401C180.334 85.0441 180.35 85.0435 180.365 85.0381C180.38 85.0328 180.394 85.0231 180.403 85.0102Z" fill="white"/>
<path id="Vector_30" d="M191.656 86.7724C191.013 84.539 188.736 84.7981 188.239 86.8612C187.912 88.2209 187.764 91.3998 189.447 91.9425C190.483 92.2772 191.266 91.6267 191.612 90.6869C191.689 90.4801 191.817 90.4417 191.994 90.5715L192.779 91.1483C192.968 91.287 193.007 91.459 192.896 91.6645C192.435 92.5269 191.978 93.04 191.525 93.2039C188.422 94.3253 186.733 92.4872 186.45 89.5919C186.193 86.9653 186.862 83.3817 190.326 83.724C191.682 83.8582 192.458 84.5806 192.985 85.7871C192.992 85.802 192.994 85.819 192.99 85.8352C192.986 85.8514 192.976 85.8658 192.963 85.876L191.728 86.7951C191.722 86.7994 191.715 86.8023 191.707 86.8035C191.7 86.8047 191.692 86.8042 191.685 86.802C191.678 86.7997 191.672 86.7959 191.667 86.7907C191.662 86.7856 191.658 86.7793 191.656 86.7724Z" fill="white"/>
<path id="Vector_31" d="M194.805 89.2046C194.787 89.9636 194.94 90.6286 195.264 91.1997C196.178 92.8071 198.322 92.1528 198.797 90.5303C198.799 90.5238 198.802 90.5179 198.807 90.513C198.812 90.5081 198.818 90.5044 198.824 90.5022C198.831 90.5 198.837 90.4993 198.844 90.5003C198.851 90.5012 198.857 90.5037 198.863 90.5076L200.018 91.3623C200.05 91.3863 200.056 91.4159 200.037 91.4512C199.186 92.9981 197.976 93.6909 196.406 93.5295C193.103 93.1891 192.857 89.2198 193.358 86.7708C193.782 84.7083 194.957 83.6872 196.883 83.7073C199.708 83.7395 200.277 86.8068 200.043 89.0193C200.037 89.0823 200.002 89.1139 199.939 89.1139L194.888 89.1214C194.834 89.1214 194.806 89.1492 194.805 89.2046ZM194.941 87.966L198.402 87.9471C198.443 87.9471 198.483 87.9305 198.513 87.9011C198.542 87.8717 198.558 87.8317 198.558 87.7901L198.557 87.7618C198.553 87.0449 198.367 86.3583 198.039 85.853C197.712 85.3477 197.27 85.065 196.811 85.067H196.501C196.042 85.0698 195.603 85.3572 195.281 85.8661C194.959 86.375 194.78 87.0637 194.784 87.7807V87.809C194.784 87.8507 194.8 87.8906 194.83 87.92C194.859 87.9494 194.899 87.966 194.941 87.966Z" fill="white"/>
<path id="Vector_32" d="M165.254 85.3169C165.809 84.1709 166.738 83.6527 168.04 83.7624C168.146 83.7712 168.192 83.828 168.18 83.9326L168.015 85.3414C168.01 85.3851 167.987 85.4249 167.952 85.4521C167.918 85.4793 167.874 85.4919 167.83 85.4871C166.664 85.3547 165.88 85.7518 165.477 86.6784C165.22 87.2741 165.288 88.1024 165.285 88.7813C165.278 90.3181 165.278 91.8139 165.285 93.2688C165.285 93.3069 165.27 93.3434 165.243 93.3704C165.216 93.3973 165.18 93.4125 165.143 93.4125L163.764 93.4087C163.745 93.4087 163.727 93.405 163.709 93.3977C163.692 93.3905 163.676 93.3799 163.663 93.3665C163.65 93.3531 163.64 93.3373 163.633 93.3199C163.626 93.3024 163.622 93.2838 163.622 93.265C163.639 90.3855 163.632 87.4998 163.601 84.6077C163.598 84.3467 163.526 84.1085 163.431 83.874C163.409 83.8185 163.427 83.7902 163.486 83.7889L164.625 83.7851C164.716 83.7852 164.804 83.8185 164.873 83.8787C164.941 83.939 164.986 84.022 164.997 84.1123L165.146 85.298C165.148 85.3103 165.153 85.322 165.161 85.3311C165.17 85.3403 165.181 85.3464 165.193 85.3485C165.205 85.3507 165.218 85.3488 165.229 85.343C165.24 85.3373 165.249 85.3281 165.254 85.3169Z" fill="white"/>
<path id="Vector_33" d="M92.3834 83.7839L90.9538 83.7814C90.8995 83.7813 90.8554 83.8253 90.8553 83.8796L90.8388 93.3084C90.8387 93.3627 90.8827 93.4068 90.937 93.4069L92.3666 93.4094C92.421 93.4095 92.4651 93.3655 92.4651 93.3112L92.4816 83.8824C92.4817 83.8281 92.4378 83.784 92.3834 83.7839Z" fill="white"/>
<path id="Vector_34" d="M96.6238 90.9654L98.4146 84.0971C98.4384 84.0077 98.4911 83.9287 98.5646 83.8722C98.6381 83.8158 98.7283 83.7852 98.8212 83.785L99.9521 83.7831C100.153 83.7831 100.224 83.8796 100.168 84.0725L97.4634 93.2044C97.4459 93.2629 97.4102 93.3142 97.3615 93.3506C97.3127 93.3871 97.2537 93.4068 97.193 93.4067H95.8485C95.8178 93.4068 95.7878 93.397 95.763 93.3786C95.7381 93.3602 95.7197 93.3343 95.7104 93.3046L92.889 83.8456C92.8764 83.8027 92.8921 83.7812 92.9362 83.7812L94.572 83.7983C94.5894 83.7982 94.6062 83.8039 94.62 83.8145C94.6337 83.8251 94.6434 83.8401 94.6477 83.8569L96.5538 90.9635C96.5778 91.0517 96.6011 91.0524 96.6238 90.9654Z" fill="white"/>
<path id="Vector_35" d="M144.582 89.8516L142.936 93.35C142.932 93.3605 142.924 93.3694 142.914 93.3758C142.904 93.3821 142.893 93.3856 142.882 93.386L141.295 93.4257C141.284 93.4259 141.274 93.4233 141.264 93.4181C141.255 93.413 141.247 93.4055 141.241 93.3963C141.235 93.3872 141.232 93.3767 141.231 93.366C141.231 93.3552 141.233 93.3445 141.238 93.3349L143.519 88.6243C143.523 88.616 143.525 88.6069 143.525 88.5978C143.525 88.5886 143.523 88.5796 143.519 88.5713L141.236 83.8796C141.232 83.8702 141.23 83.8599 141.231 83.8495C141.231 83.8392 141.234 83.8292 141.24 83.8203C141.245 83.8115 141.253 83.8042 141.262 83.799C141.271 83.7938 141.281 83.791 141.291 83.7907L142.855 83.7832C142.867 83.7831 142.879 83.7865 142.889 83.7928C142.899 83.7992 142.907 83.8083 142.912 83.8191L144.584 87.3932C144.588 87.4041 144.596 87.4135 144.606 87.4201C144.616 87.4267 144.628 87.4304 144.64 87.4306C144.652 87.4308 144.663 87.4275 144.674 87.4212C144.684 87.4149 144.692 87.4059 144.697 87.3951L146.382 83.8285C146.387 83.8178 146.395 83.8087 146.405 83.8023C146.415 83.7959 146.427 83.7926 146.439 83.7926L147.993 83.7813C148.004 83.7811 148.015 83.7837 148.024 83.7888C148.034 83.7939 148.041 83.8014 148.047 83.8106C148.053 83.8197 148.056 83.8302 148.057 83.841C148.057 83.8517 148.055 83.8624 148.05 83.872L145.777 88.5789C145.773 88.5872 145.771 88.5962 145.771 88.6054C145.771 88.6145 145.773 88.6235 145.777 88.6318L148.042 93.333C148.047 93.3425 148.049 93.353 148.048 93.3635C148.047 93.374 148.044 93.3842 148.038 93.3931C148.033 93.4019 148.025 93.4092 148.016 93.4143C148.006 93.4193 147.996 93.4219 147.986 93.4219L146.424 93.4068C146.412 93.4068 146.4 93.4034 146.39 93.3971C146.38 93.3907 146.372 93.3816 146.367 93.3708L144.695 89.8516C144.69 89.8407 144.682 89.8315 144.672 89.825C144.662 89.8186 144.65 89.8152 144.638 89.8152C144.626 89.8152 144.615 89.8186 144.605 89.825C144.595 89.8315 144.587 89.8407 144.582 89.8516Z" fill="white"/>
<path id="Vector_36" d="M170.079 83.7891H168.611C168.547 83.7891 168.494 83.8416 168.494 83.9063V93.2897C168.494 93.3545 168.547 93.407 168.611 93.407H170.079C170.144 93.407 170.196 93.3545 170.196 93.2897V83.9063C170.196 83.8416 170.144 83.7891 170.079 83.7891Z" fill="white"/>
<g id="Group 104">
<g id="Group 101">
<path id="Vector_37" d="M56.7469 76.8316C56.6738 74.8633 56.5995 72.868 55.5732 70.5524C55.1676 69.6413 54.5389 68.2543 53.157 66.9444C51.7718 65.6482 50.0483 64.77 48.1854 64.4111V62.1914C46.4277 62.4618 44.9904 62.6348 44.0777 62.7321C39.9106 63.208 29.7455 64.1259 16.7654 62.4902C15.8189 62.3712 15.0536 62.2631 14.625 62.2009L14.648 89.8928C14.6664 90.5198 14.8317 91.1338 15.1307 91.6853C15.3094 92.0149 15.5374 92.3153 15.8067 92.5762C16.2595 92.9997 16.8143 93.2988 17.4171 93.444C17.4293 93.8253 17.4401 94.2065 17.4522 94.589L46.3871 94.6931C46.3749 94.1727 46.3641 93.6522 46.3519 93.1318C46.7851 92.9529 47.1654 92.6662 47.4566 92.299C47.7162 91.9471 47.9003 91.5453 47.9974 91.1189C48.0788 90.8244 48.1291 90.5222 48.1475 90.2172C48.9757 89.9853 49.7746 89.6591 50.5286 89.2453C51.7429 88.5582 52.8293 87.6664 53.7398 86.6093C54.9242 85.2484 55.8067 83.6519 56.3291 81.9252C56.8685 80.1111 56.8172 78.7133 56.7469 76.8316ZM21.6383 74.9336C21.9588 74.6916 22.3252 74.5943 22.8552 74.5659C23.792 74.5333 24.7253 74.6977 25.5946 75.0485C26.8317 75.5135 27.5659 75.915 28.5692 76.4003C29.3007 76.7599 30.3566 77.2587 31.679 77.8035C31.2713 78.2108 30.8871 78.6409 30.5284 79.0918C30.3111 79.3622 30.1119 79.6325 29.9307 79.9029C27.747 79.2625 25.6211 78.439 23.5759 77.4412C22.6416 76.9843 21.7668 76.5125 20.9515 76.0367C21.0489 75.6019 21.2911 75.213 21.6383 74.9336ZM24.832 83.8556C23.5769 83.1222 22.5255 82.0863 21.7735 80.8424C21.2716 80.0133 20.9492 79.0881 20.8271 78.1266C20.7566 77.5493 20.7625 76.9653 20.8446 76.3895C21.7913 77.0157 22.7747 77.5845 23.7895 78.0928C25.0468 78.7133 26.3425 79.2529 27.6687 79.7082C28.4285 79.9786 29.0735 80.1854 29.544 80.3301C29.2736 80.6234 28.5489 81.4642 28.3664 82.547C28.3055 82.8787 28.3009 83.2183 28.3528 83.5514C28.3959 83.9027 28.52 84.2391 28.7152 84.5342C28.8664 84.7541 29.0577 84.9435 29.279 85.0925C27.7149 85.0762 26.1821 84.6522 24.832 83.8624V83.8556ZM40.9882 80.7897C40.325 81.8519 39.4775 82.7872 38.4854 83.5514C37.3006 84.476 35.9276 85.1298 34.463 85.467C33.023 85.7846 32.0941 85.6332 31.8399 85.5873C31.3408 85.4966 30.8557 85.3407 30.3972 85.1236C30.6771 84.8614 31.0476 84.5085 31.4789 84.0868C31.9643 83.6069 33.0324 82.5362 34.3264 81.0655C34.993 80.3084 36.0733 79.0742 37.3294 77.3736C38.5033 75.7825 39.581 74.1227 40.5569 72.403C40.0904 72.9762 39.34 73.8981 38.4178 75.0431C36.9089 76.9154 36.5912 77.3304 35.7934 78.2875C35.0687 79.1594 34.2318 80.1638 33.1176 81.3764C32.2928 82.2753 31.1625 83.4541 29.7455 84.787C29.5495 84.683 29.3759 84.5415 29.2344 84.3706C29.0073 84.087 28.872 83.7409 28.8463 83.3784C28.7896 82.8215 28.9816 82.3591 29.1911 81.9468C29.6887 80.9803 30.2647 80.3895 30.8745 79.7285C31.5857 78.9566 30.9015 79.6515 32.7215 77.6143C34.3751 75.7636 34.1736 76.0475 35.02 75.0783C35.7299 74.2604 36.1017 73.8008 36.8318 73.0938C37.6823 72.2733 38.1069 72.0042 38.5896 71.8339C38.9397 71.7109 39.6347 71.4662 40.4027 71.7298C41.1707 71.9934 41.5547 72.595 41.7832 72.9546C41.9509 73.2249 42.4484 74.0752 42.4214 75.8542C42.3842 77.5965 41.89 79.2984 40.9882 80.7897ZM51.6549 78.2469C51.6129 79.4946 51.59 80.13 51.471 80.6869C51.3087 81.4413 51.1032 82.3524 50.3893 83.2175C50.0316 83.6387 49.6122 84.0033 49.1454 84.299C48.8121 84.512 48.4572 84.6892 48.0867 84.8276C48.1092 79.8267 48.1326 74.825 48.157 69.8224C48.9682 70.2388 50.1338 71.0161 50.872 72.376C51.4372 73.4182 51.548 74.4186 51.6522 75.3689C51.7225 76.0543 51.6981 76.7856 51.6549 78.2469Z" fill="white"/>
<path id="Vector_38" d="M1.58008 99.6569C1.65 99.1894 1.76224 98.7293 1.9154 98.2821C2.08576 97.7846 2.26559 97.2561 2.60226 96.8181C3.27831 95.934 4.44787 95.6015 5.13339 95.4663C7.73752 95.4329 10.3417 95.4036 12.9458 95.3784C29.9984 95.2135 47.0524 95.2234 64.1078 95.4081C64.6894 95.4297 65.2538 95.6117 65.7384 95.934C66.3874 96.3909 66.5889 96.9898 66.789 97.5832C67.0198 98.2706 67.0888 99.002 66.9904 99.7204L1.58008 99.6569Z" fill="white"/>
<path id="Vector_39" d="M0.234375 102.275C0.306167 101.726 0.422374 101.183 0.581861 100.653C0.792788 99.9538 0.929352 99.4726 1.29442 98.9265C1.5241 98.5649 1.8135 98.2449 2.15029 97.9802C2.84392 97.4476 3.58757 97.3313 4.20413 97.2556C5.45982 97.1007 6.72509 97.037 7.99 97.065C9.28395 97.1042 10.5806 97.0515 11.8732 97.1002C15.4076 97.2353 60.8556 96.9055 65.0431 97.2732C65.6559 97.3079 66.2447 97.5239 66.7345 97.8937C67.4106 98.4344 67.6148 99.1373 67.8162 99.8376C68.0555 100.655 68.1264 101.512 68.0244 102.357L0.234375 102.275Z" fill="white"/>
<path id="Vector_40" d="M50.5463 1.89765L52.3932 1.23391C52.8717 1.04479 53.3617 0.886307 53.8603 0.759421C54.781 0.558001 55.1745 0.651276 55.4476 0.810791C55.5369 0.86216 55.8884 1.06629 55.8614 1.28528C55.8289 1.56375 55.2042 1.65568 54.274 1.90712C53.5898 2.09096 52.93 2.35592 52.254 2.57086C51.7138 2.74318 50.9717 2.98872 50.0734 3.31425C50.041 3.46512 49.9844 3.61036 49.9054 3.74418C49.612 4.19704 49.0792 4.28491 47.3283 4.48092L47.089 4.50754C45.704 4.6616 44.9974 4.7402 44.6133 4.7594C43.2328 4.82564 42.2079 4.80265 41.0099 4.77291C38.5153 4.70532 37.27 4.67423 36.4128 4.63773C33.6735 4.52148 33.1908 4.45118 29.6523 4.29302C29.4482 4.27815 26.1044 4.13891 24.2845 4.56339C22.8432 4.89999 22.5065 5.04598 22.5065 5.04598C21.9832 5.27579 21.7642 5.45964 21.368 5.42584C20.7772 5.37583 20.3756 4.90539 20.2106 4.70668L20.2084 4.704C20.0826 4.55447 19.5595 3.93287 19.659 3.39541C19.8631 2.29368 22.6025 1.97195 23.5598 1.85975C24.801 1.71241 25.3973 1.78946 28.6342 1.96249C30.8773 2.0828 32.0266 2.14364 33.2435 2.1531C35.1743 2.17067 36.1721 2.17878 37.5242 2.01792C40.2622 1.69348 40.3461 1.16492 42.7541 0.999996C43.9413 0.918888 44.9797 1.04731 47.0511 1.30551C48.6622 1.50537 49.4409 1.7 49.8183 2.16027C50.0368 2.08215 50.2815 1.99403 50.5463 1.89765Z" fill="white"/>
<path id="Vector_41" d="M16.0098 61.9796C16.9265 62.0472 18.3083 62.1472 19.9863 62.2621C24.8673 62.6001 27.3079 62.7677 28.472 62.8028C33.6397 62.9826 37.9556 62.6217 42.9395 62.2053C44.3402 62.0891 45.5085 61.9755 46.3197 61.8931C45.6937 61.8106 44.7729 61.6957 43.6574 61.5808C38.6425 61.0617 34.8201 61.0522 31.0383 61.0549C27.3295 61.0549 24.3901 61.0644 20.4054 61.4456C18.5801 61.624 17.0766 61.8228 16.0098 61.9796Z" fill="white"/>
<path id="Vector_42" d="M30.2328 58.889C30.0732 58.9025 29.2971 56.8761 29.9002 54.77C30.1205 53.9967 30.3626 53.7913 30.5667 52.7909C30.6898 52.1894 30.8845 51.2336 30.6357 50.2144C30.2436 48.6084 28.9875 47.8189 29.0943 47.7067C29.2011 47.5945 30.4721 48.3137 31.2347 49.6385C31.5628 50.2026 31.7665 50.8304 31.8323 51.4797C31.9094 52.3516 31.6971 53.0275 31.4767 53.6777C31.2063 54.4888 30.9954 54.7078 30.7371 55.2999C29.915 57.2086 30.3774 58.8768 30.2328 58.889Z" fill="white"/>
<path id="Vector_43" d="M32.0407 62.9392C31.988 62.9162 32.5139 62.2119 32.5694 61.0467C32.6464 59.4448 31.7284 59.0054 31.5796 57.3197C31.4336 55.6543 32.1719 54.3214 32.2016 54.3282C31.8886 55.4693 31.9225 56.6778 32.299 57.7996C32.6113 58.7932 32.8898 58.9149 33.0642 59.4772C33.5659 61.1102 32.1259 62.9757 32.0407 62.9392Z" fill="white"/>
<path id="Vector_44" d="M33.5356 55.4428C33.5802 55.4334 33.1624 55.0035 33.157 54.3384C33.1489 53.4192 33.9372 53.2164 34.121 52.2607C34.1713 51.9574 34.1603 51.6471 34.0888 51.348C34.0173 51.049 33.8866 50.7673 33.7046 50.5195C33.8127 50.8603 33.85 51.2196 33.8141 51.5753C33.7666 51.8993 33.6598 52.2119 33.4991 52.4972C33.2003 53.0488 32.9582 53.1042 32.796 53.4165C32.3187 54.3195 33.4599 55.4645 33.5356 55.4428Z" fill="white"/>
</g>
</g>
<g id="Vector_45">
<path fill-rule="evenodd" clip-rule="evenodd" d="M5.06201 94.7745L4.99999 94.7868L5.06201 94.7745Z" fill="white"/>
<path d="M52.0882 11.3297L34.6031 11.2908L17.2659 11.3293L17.2039 11.9298C14.5194 40.2045 11.8815 66.505 9.1956 94.7249C7.8388 94.7401 6.48201 94.7564 5.12521 94.7737L5.06201 94.7745L4.99999 94.7868C4.82394 94.8215 4.60455 94.8706 4.36133 94.9419L12.374 11.9995L12.4515 11.34L10.3668 11.3447L9.30699 11.3423C9.30579 11.3423 9.30302 11.3424 9.29925 11.3426C9.22138 11.3457 8.34535 11.2607 8.12902 10.8797C8.06839 10.7636 8.04035 10.6332 8.0479 10.5025C8.0479 10.274 8.12362 10.0537 8.36159 9.70493C8.55328 9.42917 8.77107 9.1725 9.01194 8.93845C9.32201 8.61806 9.65753 8.3233 10.0152 8.05707C10.1713 7.93972 10.3233 7.84071 10.4173 7.77949C10.4316 7.77019 10.4446 7.76176 10.456 7.75427C10.456 7.75427 10.7629 7.55285 11.055 7.38252C12.088 6.78366 13.8241 6.6228 13.8241 6.6228C16.3363 6.39028 17.4031 6.37 17.4031 6.37C18.5199 6.34973 20.1978 6.30917 22.3233 6.22266H22.4584H22.4694H22.5831H22.8903H34.6031H46.3947H46.6232H46.7369H46.7478H46.8829C49.0084 6.30917 50.6863 6.34973 51.8032 6.37C51.8032 6.37 52.87 6.39028 55.3822 6.6228C55.3822 6.6228 57.1183 6.78366 58.1513 7.38252C58.4433 7.55285 58.7503 7.75427 58.7503 7.75427C58.7616 7.76171 58.7748 7.77029 58.7889 7.77952C58.8829 7.84074 59.035 7.93974 59.191 8.05707C59.5487 8.3233 59.8842 8.61806 60.1943 8.93845C60.4352 9.1725 60.653 9.42917 60.8447 9.70493C61.0826 10.0537 61.1583 10.274 61.1583 10.5025C61.1659 10.6332 61.1378 10.7636 61.0772 10.8797C60.8609 11.2607 59.9848 11.3457 59.9069 11.3426L59.903 11.3424C59.9012 11.3424 59.8992 11.3423 59.8992 11.3423L58.8394 11.3447L56.767 11.3401L64.8318 94.8062C64.6034 94.7551 64.3699 94.7247 64.1341 94.716L64.125 94.7157L64.116 94.7156C62.7459 94.7007 61.3759 94.687 60.0059 94.6744C57.3654 66.8954 54.7262 39.1138 52.0882 11.3297Z" fill="white"/>
</g>
<g id="Subtract">
<path d="M22.0294 5.54107C21.9119 5.28714 21.7875 5.03623 21.6562 4.78861C22.5553 4.49157 23.4743 4.25892 24.4064 4.09243C26.1046 3.79098 27.473 3.77611 30.3786 3.86803C31.8106 3.9136 32.5765 3.95187 33.4778 3.9969C34.127 4.02934 34.8465 4.06528 35.9357 4.11C38.9455 4.23302 40.4504 4.29385 42.1838 4.26546C44.2671 4.22939 46.3472 4.08545 48.4156 3.83423C48.0829 4.52637 47.788 5.09307 47.5262 5.55458C47.3259 5.54694 47.1211 5.53887 46.912 5.53036L46.4293 5.51071H46.2438H46.1038H46.0903H46.0892C46.075 5.5484 46.061 5.47338 46.0472 5.51071H23.1607H23.1188H23.1177H23.1044H22.9642L22.7787 5.51071L22.296 5.53036C22.2063 5.53401 22.1174 5.53758 22.0294 5.54107Z" fill="white"/>
<path d="M23.4135 12.009C23.3902 12.8416 23.3026 13.6834 23.2021 14.6498C23.1575 15.0785 23.1103 15.5317 23.0651 16.0195C22.9489 17.2767 22.8961 19.91 22.7947 25.1781C22.7771 26.0243 22.7947 28.6928 22.8407 34.0135C22.8637 36.8523 22.8853 38.3042 23.3937 39.7195C24.3645 42.4232 26.1763 44.0927 26.8916 44.7361C27.9904 45.737 29.2716 46.5172 30.6653 47.0342C32.1404 47.5749 32.9395 47.4925 33.2437 47.4479C33.6795 47.3857 33.8871 47.282 34.2124 47.1195C34.4675 46.992 34.7948 46.8285 35.3611 46.6206C36.3785 46.2223 37.4484 45.9741 38.5372 45.8838C39.249 45.8353 39.615 45.8969 39.9347 45.9507C40.2478 46.0034 40.5166 46.0486 41.0223 45.9757C42.273 45.7959 43.1127 45.1646 44.1065 44.4117L44.1166 44.404C45.3298 43.4849 46.4836 42.6108 47.0054 41.0524C47.3312 40.0805 47.2758 39.264 47.1906 38.1528C47.0895 36.9868 46.826 35.8406 46.4077 34.7476C46.182 34.1443 46.0155 33.8285 45.8399 33.4953C45.6841 33.1997 45.5211 32.8905 45.3031 32.3548C44.8784 31.2861 44.5697 30.1748 44.3823 29.0402C44.1416 27.7708 43.8185 25.4335 43.9226 21.0334C43.9873 18.2464 44.1917 16.0452 44.5628 12.0509L44.5662 12.0141C44.5664 12.0115 44.5667 12.0089 44.5669 12.0062L34.6055 11.9841H34.6024L23.4135 12.009Z" fill="white"/>
<path d="M44.6347 11.3133L34.604 11.291L23.4169 11.3159C23.4026 10.5807 23.3276 9.82796 23.1571 8.97924C22.9864 8.13949 22.7469 7.31632 22.4416 6.51793C22.4475 6.53312 22.4534 6.54835 22.4593 6.56362L22.4702 6.59193C22.51 6.69747 22.5478 6.80147 22.5839 6.90412C22.6574 6.98942 22.7336 7.0724 22.8124 7.15293L34.604 7.16099L46.3956 7.15293C46.4743 7.0724 46.5505 6.98942 46.624 6.90412C46.6601 6.80147 46.698 6.69747 46.7377 6.59193L46.7486 6.56375C46.7935 6.44781 46.8375 6.33419 46.8838 6.22288C46.9625 6.22609 47.0406 6.22923 47.1181 6.23231C46.664 6.93553 46.3325 7.26083 46.0859 7.37193C45.9727 7.42085 45.8645 7.48061 45.7628 7.55037C45.3664 7.83302 45.0648 8.22883 44.8974 8.6859C44.8271 9.34651 44.7393 10.2439 44.6347 11.3133Z" fill="white"/>
</g>
</g>
</svg>
